<svg width="882" height="544" viewBox="0 0 882 544" fill="none" xmlns="http://www.w3.org/2000/svg">
<path d="M97.0114 141.69L97.0372 184.064L47.2687 193.738L47.5717 222.549L94.5328 213.421L94.4665 253.959L47.5054 263.087L47.8061 330.04L1.35553 339.069L0.537109 160.443L97.0114 141.69Z" fill="white"/>
<path d="M209.338 254.673L209.406 298.628L116.505 316.686L115.687 138.06L162.137 129.031L162.632 263.752L209.338 254.673Z" fill="white"/>
<path d="M376.071 150.22C389.119 217.343 351.534 274.709 295.64 285.574C249.445 294.553 224.215 273.765 216.674 234.971C204.718 173.463 239.07 110.369 297.772 98.9583C341.67 90.4253 368.134 109.384 376.071 150.22ZM327.905 165.41C325.027 150.607 315.393 140.56 298.549 143.835C268.177 149.738 258.951 186.759 264.806 216.875C268.477 235.762 278.479 243.617 294.303 240.541C322.888 234.985 334.404 198.844 327.905 165.41Z" fill="white"/>
<path d="M614.163 41.1662L573.891 227.779L517.486 238.743L503.148 174.519C500.462 162.063 498.301 146.856 496.657 130.224L496.402 130.273C495.245 146.125 493.281 160.545 490.295 175.163L475.63 246.879L422.799 257.148L381.655 86.3612L429.126 77.1337L445.116 147.129C447.504 158.054 449.368 171.729 450.367 185.043L450.622 184.994C452.275 171.694 453.771 158.954 456.75 145.662L474.046 68.4022L521.007 59.2739L538.386 126.88C540.831 136.734 543.51 150.516 545.012 165.057L545.267 165.007C547.239 149.262 549.509 135.048 552.026 122.11L565.671 50.5921L614.163 41.1662Z" fill="white"/>
<path d="M725.652 19.495L725.833 61.3085L673.513 71.4786L673.632 96.6178L723.4 86.9438L723.284 127.226L673.771 136.85L673.819 165.712L726.14 155.541L726.47 198.121L627.699 217.32L626.88 38.6942L725.652 19.495Z" fill="white"/>
<path d="M870.525 33.4482C875.883 61.0123 866.573 85.3357 840.114 103.192C843.807 108.566 848.259 115.117 852.101 121.257L881.321 168.021L827.469 178.489L795.612 119.524L793.826 119.871L794.034 184.988L747.584 194.017L746.766 15.3909C762.646 11.2445 783.27 6.97088 803.432 3.05166C844.013 -4.83638 865.266 6.3946 870.525 33.4482ZM822.386 52.8704C820.898 45.2137 814.851 41.3566 803.111 43.6387C799.282 44.3829 794.993 45.4815 793.511 46.0343L793.814 84.3812C795.65 84.2891 798.762 83.949 801.315 83.4529C817.649 80.2779 824.867 65.6315 822.386 52.8704Z" fill="white"/>
<path d="M120.794 389.579C128.384 428.628 102.363 469.178 55.1472 478.356C53.6158 478.654 50.8084 479.199 47.4409 479.589L47.8061 534.61L1.35553 543.639L0.537109 365.014C16.2121 361.172 33.2128 357.338 53.6307 353.369C87.0649 346.87 114.444 356.91 120.794 389.579ZM73.1377 404.669C71.5997 396.757 65.7159 391.015 54.2308 393.247C51.1681 393.842 49.3816 394.19 47.3894 394.842L47.6632 438.491C49.2441 438.449 50.265 438.251 50.7755 438.151C67.6202 434.877 75.9158 418.962 73.1377 404.669Z" fill="white"/>
<path d="M291.828 371.166C304.875 438.289 267.291 495.655 211.397 506.519C165.201 515.499 139.971 494.711 132.431 455.917C120.475 394.408 154.827 331.315 213.528 319.904C257.426 311.371 283.89 330.33 291.828 371.166ZM243.661 386.355C240.784 371.552 231.15 361.506 214.305 364.78C183.934 370.684 174.708 407.705 180.562 437.821C184.233 456.707 194.236 464.563 210.06 461.487C238.645 455.931 250.16 419.79 243.661 386.355Z" fill="white"/>
<path d="M529.92 262.112L489.647 448.725L433.243 459.689L418.905 395.465C416.219 383.008 414.057 367.801 412.414 351.169L412.158 351.219C411.002 367.071 409.037 381.491 406.052 396.109L391.386 467.825L338.555 478.094L297.411 307.307L344.883 298.079L360.872 368.075C363.261 379 365.124 392.675 366.123 405.989L366.378 405.94C368.031 392.64 369.528 379.9 372.506 366.608L389.802 289.348L436.763 280.22L454.142 347.826C456.588 357.68 459.267 371.462 460.769 386.003L461.024 385.953C462.996 370.208 465.265 355.994 467.783 343.055L481.427 271.538L529.92 262.112Z" fill="white"/>
<path d="M641.408 240.441L641.59 282.254L589.269 292.424L589.388 317.564L639.157 307.89L639.041 348.172L589.527 357.796L589.575 386.657L641.896 376.487L642.227 419.067L543.455 438.266L542.637 259.64L641.408 240.441Z" fill="white"/>
<path d="M786.281 254.394C791.639 281.958 782.329 306.282 755.87 324.138C759.564 329.512 764.015 336.063 767.857 342.203L797.077 388.967L743.225 399.434L711.369 340.47L709.582 340.817L709.791 405.933L663.34 414.962L662.522 236.337C678.403 232.19 699.026 227.917 719.189 223.998C759.769 216.109 781.023 227.34 786.281 254.394ZM738.143 273.816C736.654 266.16 730.607 262.302 718.867 264.585C715.039 265.329 710.75 266.427 709.268 266.98L709.57 305.327C711.406 305.235 714.519 304.895 717.071 304.399C733.405 301.224 740.623 286.577 738.143 273.816Z" fill="white"/>
</svg>