
<svg width="692" height="338" viewBox="0 0 692 338" fill="none" xmlns="http://www.w3.org/2000/svg">
  <path d="M31.1246 128.815L31.1805 141.681L15.0818 144.81L15.1184 152.545L30.4318 149.569L30.3961 161.963L15.1613 164.925L15.176 173.805L31.2747 170.676L31.3764 183.777L0.985222 189.685L0.733398 134.723L31.1246 128.815Z" fill="white"/>
  <path d="M51.9136 124.774L52.1654 179.736L37.8729 182.514L37.6211 127.553L51.9136 124.774Z" fill="white"/>
  <path d="M104.691 114.516L104.864 169.493L88.0586 172.759L79.332 155.956C77.2665 152.038 75.3428 148.011 73.9491 144.614C74.2456 147.817 74.2825 149.684 74.3259 153.261L74.3944 175.415L60.5731 178.102L60.3212 123.14L77.2838 119.843L85.0812 134.382C87.4892 138.804 89.7554 143.335 91.4435 147.408C91.0554 143.734 90.8899 139.528 90.877 136.108L90.7909 117.217L104.691 114.516Z" fill="white"/>
  <path d="M167.192 115.325C168.84 123.806 165.976 131.29 157.834 136.784C158.971 138.438 160.341 140.454 161.523 142.343L170.513 156.732L153.944 159.952L144.142 141.809L143.592 141.916L143.656 161.952L129.364 164.73L129.112 109.769C133.998 108.493 140.344 107.178 146.548 105.972C159.034 103.545 165.574 107 167.192 115.325ZM152.38 121.301C151.922 118.945 150.061 117.758 146.449 118.46C145.271 118.689 143.951 119.027 143.495 119.197L143.588 130.996C144.153 130.968 145.111 130.863 145.896 130.711C150.922 129.734 153.143 125.227 152.38 121.301Z" fill="white"/>
  <path d="M204.596 95.0958L204.652 107.962L188.554 111.091L188.59 118.826L203.904 115.849L203.868 128.244L188.633 131.205L188.648 140.086L204.747 136.956L204.848 150.058L174.457 155.965L174.205 101.003L204.596 95.0958Z" fill="white"/>
  <path d="M246.237 88.0611L244.906 102.174C242.539 101.738 239.668 101.644 237.156 102.133C225.219 104.453 224.74 117.504 225.992 123.943C227.045 129.362 229.933 132.06 236.216 130.839C239.514 130.198 242.204 128.942 244.691 127.481L246.673 141.031C243.243 142.676 238.34 144.281 234.492 145.029C216.979 148.433 211.734 137.799 210.223 130.024C206.88 112.826 214.158 92.8298 235.518 88.6778C239.602 87.884 243.321 87.7315 246.237 88.0611Z" fill="white"/>
  <path d="M295.074 77.5087L278.733 116.707L278.835 135.676L264.542 138.454L264.456 119.564L248.035 86.6523L263.113 83.7215L268.09 94.6526C269.392 97.5779 270.382 100.156 271.154 102.451L271.311 102.421C272.254 99.3035 273.685 95.7654 275.086 92.0703L279.447 80.5464L295.074 77.5087Z" fill="white"/>
  <path d="M328.295 72.1107L326.964 86.224C324.597 85.7876 321.726 85.6936 319.213 86.1821C307.277 88.5024 306.798 101.553 308.05 107.993C309.103 113.412 311.991 116.11 318.274 114.889C321.572 114.248 324.262 112.991 326.748 111.53L328.73 125.081C325.301 126.725 320.397 128.331 316.549 129.079C299.037 132.483 293.792 121.848 292.281 114.074C288.938 96.8755 296.216 76.8793 317.576 72.7273C321.66 71.9336 325.379 71.7811 328.295 72.1107Z" fill="white"/>
  <path d="M363.609 105.669L363.63 119.193L335.045 124.75L334.793 69.7881L349.086 67.0099L349.238 108.462L363.609 105.669Z" fill="white"/>
  <path d="M382.292 60.5552L382.544 115.517L368.252 118.295L368 63.3334L382.292 60.5552Z" fill="white"/>
  <path d="M435.07 50.2964L435.243 105.273L418.438 108.54L409.711 91.7364C407.645 87.8186 405.722 83.7916 404.328 80.3952C404.624 83.5974 404.661 85.4647 404.705 89.0421L404.773 111.196L390.952 113.883L390.7 58.9209L407.663 55.6238L415.46 70.1631C417.868 74.5848 420.134 79.1157 421.822 83.1884C421.434 79.5149 421.269 75.3093 421.256 71.8889L421.17 52.9982L435.07 50.2964Z" fill="white"/>
  <path d="M485.967 41.6255L484.397 56.1926C480.165 55.3852 475.02 55.326 470.779 56.1503C458.45 58.5468 454.861 69.4316 456.708 78.9338C457.7 84.0382 461.039 87.3825 468.186 85.9934C469.364 85.7644 470.84 85.3959 472.036 84.8375L471.969 68.1435L486.262 65.3653L486.35 92.6499C481.374 95.9805 474.629 98.5956 468.268 99.832C452.248 102.946 443.906 96.0916 441.54 83.9194C437.816 64.7581 448.582 46.7734 469.314 42.7435C474.811 41.675 480.76 41.2521 485.967 41.6255Z" fill="white"/>
  <path d="M562.176 25.5893L549.785 83.0087L532.43 86.3822L528.018 66.6209C527.191 62.7882 526.526 58.1092 526.021 52.9916L525.942 53.0069C525.586 57.8844 524.982 62.3213 524.063 66.8192L519.551 88.8856L503.295 92.0454L490.635 39.4955L505.242 36.6563L510.162 58.1932C510.897 61.5547 511.47 65.7626 511.777 69.8593L511.856 69.844C512.364 65.7518 512.825 61.8319 513.741 57.7419L519.063 33.9697L533.513 31.161L538.86 51.9628C539.613 54.995 540.437 59.2356 540.899 63.7096L540.978 63.6943C541.584 58.8496 542.283 54.476 543.057 50.495L547.256 28.4896L562.176 25.5893Z" fill="white"/>
  <path d="M596.48 18.9213L596.536 31.787L580.438 34.9163L580.474 42.6514L595.788 39.6748L595.752 52.0693L580.517 55.0307L580.532 63.911L596.631 60.7817L596.732 73.883L566.341 79.7905L566.089 24.8287L596.48 18.9213Z" fill="white"/>
  <path d="M641.057 23.2146C642.705 31.6959 639.841 39.18 631.7 44.6743C632.836 46.3279 634.206 48.3435 635.388 50.2327L644.379 64.6215L627.809 67.8424L618.007 49.6993L617.457 49.8062L617.521 69.8421L603.229 72.6202L602.977 17.6585C607.863 16.3827 614.209 15.0677 620.413 13.8618C632.899 11.4347 639.439 14.8904 641.057 23.2146ZM626.245 29.1906C625.787 26.8347 623.926 25.648 620.314 26.3501C619.136 26.5791 617.816 26.9171 617.36 27.0872L617.453 38.8863C618.018 38.858 618.976 38.7533 619.761 38.6007C624.787 37.6237 627.008 33.1171 626.245 29.1906Z" fill="white"/>
  <path d="M691.105 0.528137L676.161 30.9791L691.278 55.5052L673.609 58.9397L662.547 35.9889L662.615 61.0768L648.322 63.855L648.07 8.8932L662.363 6.11502L662.534 29.6345L673.043 4.03902L691.105 0.528137Z" fill="white"/>
  <path d="M72.3688 195.623L59.9772 253.043L42.6221 256.416L38.2104 236.655C37.3839 232.822 36.7189 228.143 36.2131 223.026L36.1346 223.041C35.7787 227.918 35.1742 232.355 34.2556 236.853L29.7431 258.92L13.4874 262.079L0.827782 209.529L15.4344 206.69L20.3542 228.227C21.0891 231.589 21.6626 235.797 21.9699 239.893L22.0484 239.878C22.5569 235.786 23.0175 231.866 23.9339 227.776L29.2557 204.004L43.7053 201.195L49.0527 221.997C49.8051 225.029 50.6294 229.27 51.0915 233.744L51.1701 233.728C51.7768 228.883 52.4751 224.51 53.2497 220.529L57.448 198.524L72.3688 195.623Z" fill="white"/>
  <path d="M90.5743 192.084L90.8261 247.046L76.5336 249.824L76.2818 194.863L90.5743 192.084Z" fill="white"/>
  <path d="M137.062 196.006C138.71 204.488 135.846 211.972 127.704 217.466C128.841 219.12 130.211 221.135 131.393 223.024L140.384 237.413L123.814 240.634L114.012 222.491L113.462 222.598L113.526 242.634L99.2337 245.412L98.9819 190.45C103.868 189.174 110.214 187.859 116.418 186.653C128.904 184.226 135.444 187.682 137.062 196.006ZM122.25 201.982C121.792 199.626 119.931 198.44 116.319 199.142C115.141 199.371 113.821 199.709 113.365 199.879L113.458 211.678C114.023 211.65 114.981 211.545 115.766 211.392C120.792 210.415 123.013 205.909 122.25 201.982Z" fill="white"/>
  <path d="M188.151 192.514C191.678 210.654 183.197 229.499 161.602 233.696C154.927 234.994 149.556 235.875 144.312 236.568L144.106 181.842C148.144 180.813 155.637 179.112 162.469 177.784C175.505 175.25 185.48 178.771 188.151 192.514ZM172.705 196.902C171.682 191.64 168.949 189.319 162.667 190.54C160.389 190.983 159.525 191.151 158.457 191.522L158.549 220.924C159.207 220.959 160.165 220.855 161.264 220.641C173.437 218.275 173.987 203.498 172.705 196.902Z" fill="white"/>
  <path d="M244.945 162.078L245.018 174.614L230.615 203.656C230.203 204.47 229.791 205.283 229.158 206.221C229.928 205.99 231.97 205.593 237.781 204.464L245.477 202.968L245.589 216.963L211.115 223.664L211.07 211.693L224.736 182.632C225.322 181.458 225.988 180.269 226.747 179.144C225.898 179.39 224.956 179.573 220.166 180.505L211.449 182.199L211.334 168.611L244.945 162.078Z" fill="white"/>
  <path d="M296.102 152.134L296.181 186.918C296.195 201.666 287.93 209.874 274.344 212.515C257.853 215.72 252.583 206.639 252.494 194.024L252.361 160.636L266.654 157.858L266.778 192.878C266.795 198.416 269.136 200.814 274.004 199.867C280.208 198.661 282.111 195.032 282.067 188.52L281.967 154.881L296.102 152.134Z" fill="white"/>
  <path d="M357.777 140.145L366.668 193.428L351.668 196.344L348.784 178.567C348.175 175.018 347.647 171.046 347.155 166.415L346.998 166.445C346.249 171.399 345.219 176.163 343.967 181.46L339.889 198.633L326.617 201.213L322.489 187.102C321.071 182.324 319.765 177.281 318.962 171.895L318.884 171.91C318.415 177.462 318.015 181.696 317.459 185.96L315.309 203.411L300.624 206.266L309.01 149.625L324.873 146.541L330.409 164.536C331.519 168.15 332.315 171.826 333.215 176.459L333.372 176.429C334.151 171.632 335.098 167.699 336.331 163.14L341.757 143.259L357.777 140.145Z" fill="white"/>
  <path d="M46.7679 273.91L31.8237 304.361L46.9412 328.887L29.2719 332.322L18.2095 309.371L18.2777 334.459L3.98522 337.237L3.7334 282.275L18.0259 279.497L18.1968 303.017L28.706 277.421L46.7679 273.91Z" fill="white"/>
  <path d="M93.7186 264.784L93.7971 299.568C93.8115 314.316 85.5458 322.524 71.96 325.165C55.4687 328.371 50.1991 319.289 50.1104 306.674L49.9772 273.286L64.2697 270.508L64.3941 305.528C64.4112 311.066 66.7517 313.464 71.6205 312.517C77.8244 311.312 79.7268 307.682 79.6836 301.17L79.5831 267.532L93.7186 264.784Z" fill="white"/>
  <path d="M146.419 254.54L146.592 309.517L129.787 312.784L121.06 295.98C118.995 292.062 117.071 288.035 115.677 284.639C115.974 287.841 116.011 289.708 116.054 293.286L116.123 315.44L102.301 318.126L102.049 263.165L119.012 259.867L126.81 274.407C129.217 278.828 131.484 283.359 133.172 287.432C132.784 283.759 132.618 279.553 132.605 276.133L132.519 257.242L146.419 254.54Z" fill="white"/>
  <path d="M181.32 247.43L181.295 260.719C178.865 260.376 175.994 260.282 173.56 260.755C168.377 261.763 167 263.905 167.489 266.418C168.588 272.072 182.534 269.606 185.037 282.485C187.159 293.4 179.176 304.324 165.277 307.026C161.193 307.82 157.347 308.16 154.195 307.876L154.052 293.723C157.311 294.557 160.496 294.59 163.558 293.995C168.349 293.063 170.367 291.286 169.771 288.223C168.672 282.569 154.803 285.428 152.361 272.863C150.254 262.026 155.802 251.575 171.351 248.553C174.885 247.866 178.244 247.539 181.32 247.43Z" fill="white"/>
  <path d="M222.176 239.814L222.262 252.837L211.032 255.02L211.198 296.959L196.905 299.737L196.74 257.798L185.51 259.981L185.423 246.958L222.176 239.814Z" fill="white"/>
  <path d="M295.459 225.57L283.067 282.989L265.712 286.362L261.301 266.601C260.474 262.768 259.809 258.089 259.303 252.972L259.225 252.987C258.869 257.865 258.264 262.302 257.346 266.799L252.833 288.866L236.577 292.026L223.918 239.476L238.525 236.637L243.444 258.173C244.179 261.535 244.753 265.743 245.06 269.84L245.139 269.824C245.647 265.732 246.108 261.812 247.024 257.722L252.346 233.95L266.795 231.141L272.143 251.943C272.895 254.975 273.719 259.216 274.182 263.69L274.26 263.675C274.867 258.83 275.565 254.456 276.34 250.475L280.538 228.47L295.459 225.57Z" fill="white"/>
  <path d="M329.763 218.902L329.819 231.767L313.72 234.897L313.757 242.632L329.07 239.655L329.035 252.05L313.8 255.011L313.814 263.891L329.913 260.762L330.015 273.863L299.624 279.771L299.372 224.809L329.763 218.902Z" fill="white"/>
  <path d="M374.339 223.195C375.988 231.676 373.123 239.16 364.982 244.655C366.119 246.308 367.488 248.324 368.671 250.213L377.661 264.602L361.091 267.823L351.289 249.68L350.74 249.786L350.804 269.822L336.511 272.6L336.26 217.639C341.146 216.363 347.492 215.048 353.695 213.842C366.182 211.415 372.721 214.871 374.339 223.195ZM359.528 229.171C359.07 226.815 357.209 225.628 353.597 226.33C352.419 226.559 351.099 226.897 350.643 227.067L350.736 238.867C351.301 238.838 352.259 238.734 353.044 238.581C358.07 237.604 360.291 233.097 359.528 229.171Z" fill="white"/>
  <path d="M424.388 200.508L409.443 230.959L424.561 255.485L406.892 258.92L395.829 235.969L395.897 261.057L381.605 263.835L381.353 208.873L395.646 206.095L395.816 229.615L406.326 204.019L424.388 200.508Z" fill="white"/>
  
</svg>
